<?xml version="1.0" encoding="UTF-8" standalone="no"?>
<!-- Created with Inkscape (http://www.inkscape.org/) -->

<svg
   xmlns:dc="http://purl.org/dc/elements/1.1/"
   xmlns:cc="http://creativecommons.org/ns#"
   xmlns:rdf="http://www.w3.org/1999/02/22-rdf-syntax-ns#"
   xmlns:svg="http://www.w3.org/2000/svg"
   xmlns="http://www.w3.org/2000/svg"
   xmlns:sodipodi="http://sodipodi.sourceforge.net/DTD/sodipodi-0.dtd"
   xmlns:inkscape="http://www.inkscape.org/namespaces/inkscape"
   id="svg2"
   version="1.1"
   inkscape:version="0.48.4 r9939"
   width="222"
   height="32"
   xml:space="preserve"
   sodipodi:docname="06.ai"
   inkscape:export-filename="/home/max/Downloads/Restaurant-vector-free-collection/es.png"
   inkscape:export-xdpi="600"
   inkscape:export-ydpi="600"><metadata
     id="metadata8"><rdf:RDF><cc:Work
         rdf:about=""><dc:format>image/svg+xml</dc:format><dc:type
           rdf:resource="http://purl.org/dc/dcmitype/StillImage" /><dc:title></dc:title></cc:Work></rdf:RDF></metadata><defs
     id="defs6"><clipPath
       clipPathUnits="userSpaceOnUse"
       id="clipPath16"><path
         d="M 0,800 800,800 800,0 0,0 0,800 z"
         id="path18"
         inkscape:connector-curvature="0" /></clipPath><clipPath
       clipPathUnits="userSpaceOnUse"
       id="clipPath24"><path
         d="M 0,800 800,800 800,0 0,0 0,800 z"
         id="path26"
         inkscape:connector-curvature="0" /></clipPath><clipPath
       clipPathUnits="userSpaceOnUse"
       id="clipPath28"><path
         d="M 800,0 0,0 0,800 800,800 800,0 z"
         id="path30"
         inkscape:connector-curvature="0" /></clipPath><radialGradient
       fx="0"
       fy="0"
       cx="0"
       cy="0"
       r="1"
       gradientUnits="userSpaceOnUse"
       gradientTransform="matrix(-123.445,861.2926,856.98102,122.82703,462.50879,2.9144001)"
       spreadMethod="pad"
       id="radialGradient32"><stop
         style="stop-opacity:1;stop-color:#ffffff"
         offset="0"
         id="stop34" /><stop
         style="stop-opacity:1;stop-color:#dadada"
         offset="0.897561"
         id="stop36" /><stop
         style="stop-opacity:1;stop-color:#b2b2b2"
         offset="1"
         id="stop38" /></radialGradient><clipPath
       clipPathUnits="userSpaceOnUse"
       id="clipPath58"><path
         d="M 0,800 800,800 800,0 0,0 0,800 z"
         id="path60"
         inkscape:connector-curvature="0" /></clipPath></defs><sodipodi:namedview
     pagecolor="#ffffff"
     bordercolor="#666666"
     borderopacity="1"
     objecttolerance="10"
     gridtolerance="10"
     guidetolerance="10"
     inkscape:pageopacity="0"
     inkscape:pageshadow="2"
     inkscape:window-width="1375"
     inkscape:window-height="876"
     id="namedview4"
     showgrid="false"
     inkscape:zoom="2.8284271"
     inkscape:cx="104.57605"
     inkscape:cy="19.247287"
     inkscape:window-x="65"
     inkscape:window-y="24"
     inkscape:window-maximized="1"
     inkscape:current-layer="g10" /><g
     id="g10"
     inkscape:groupmode="layer"
     inkscape:label="06"
     transform="matrix(1.25,0,0,-1.25,0,32)"><g
       id="g4673"><path
         d="M 2.2488493,19.652324 C 1.6691265,19.271483 1.230565,18.777916 0.78618599,18.253064 0.58343536,18.013398 0.89745972,17.657322 1.1659786,17.790095 c 0.5755903,0.284966 1.1589761,0.526293 1.7136411,0.853804 0.5574762,0.330358 1.1365005,0.633906 1.7127741,0.931015 1.1830809,0.608584 2.4328413,1.100291 3.7086391,1.474706 1.2702382,0.372822 2.5394151,0.711048 3.8456791,0.931073 0.643659,0.108194 1.280748,0.247382 1.927521,0.340376 0.710889,0.1025 1.412212,0.136724 2.129335,0.138014 0.04425,4.53e-4 0.05534,0.06671 0.0073,0.06938 -0.678492,0.05102 -1.357236,0.07995 -2.037522,0.124197 -0.667939,0.04253 -1.362999,0.09483 -2.03289,0.04962 C 10.75871,22.610241 9.3629271,22.463964 8.0191274,22.11342 6.6663875,21.760133 5.3438035,21.29154 4.0787601,20.69875 3.4385683,20.396701 2.8378668,20.040986 2.248876,19.652382"
         style="fill:#1c1c1b;fill-opacity:1;fill-rule:nonzero;stroke:none"
         id="path276-4"
         inkscape:connector-curvature="0" /><path
         d="m 31.049307,18.884401 c 0.456656,-0.124417 0.903216,-0.284605 1.351917,-0.438691 0.455323,-0.146638 0.88759,-0.327616 1.32516,-0.500285 0.435479,-0.161315 0.879968,-0.373287 1.323189,-0.574649 0.890116,-0.398598 1.780844,-0.796824 2.666783,-1.193784 0.897854,-0.388859 1.771651,-0.821554 2.689483,-1.137781 0.908325,-0.338307 1.808157,-0.673825 2.698105,-1.004125 0.90644,-0.285976 1.813298,-0.53975 2.697994,-0.803483 0.442314,-0.133912 0.881306,-0.264872 1.329745,-0.349115 0.44488,-0.09564 0.885325,-0.190531 1.32063,-0.283571 0.437452,-0.08693 0.864728,-0.192716 1.295786,-0.259468 0.433056,-0.05555 0.860936,-0.1111 1.282593,-0.165115 0.260428,-0.03335 0.513427,-0.06578 0.76929,-0.0989 -0.04049,-0.01894 -0.07954,-0.04021 -0.120361,-0.05857 -6.728895,-3.1128393 -13.629578,-1.080127 -16.905117,0.308069 -3.04229,1.289776 -5.343193,4.052026 -5.23882,6.969152 0.04957,-0.0122 0.09929,-0.02196 0.149459,-0.03393 0.458792,-0.10494 0.91007,-0.241804 1.364164,-0.375797 M 7.3814319,19.126101 C 6.5666664,18.865714 5.9401378,18.618507 5.5134614,18.452694 5.0872301,18.284709 4.8636402,18.185556 4.8636402,18.185556 l 0.028344,-0.07229 c 0,0 0.2297248,0.07798 0.6677865,0.205871 0.4365289,0.129833 1.0845709,0.298412 1.9075189,0.508896 1.6471615,0.418064 4.0309884,0.898859 6.9129864,1.235911 1.440471,0.165592 3.007137,0.279411 4.662665,0.322735 1.655968,0.04114 3.401109,-0.01964 5.192792,-0.186173 1.563004,-0.14687 3.158658,-0.411265 4.751595,-0.779602 -0.06636,-1.321874 0.368494,-2.806794 1.431031,-4.333156 C 33.047566,11.310403 38.140516,9.8267153 42.001091,9.4423526 40.46042,9.3375342 38.961066,8.9157283 37.618867,8.0886187 36.65771,7.4944344 35.768217,6.765606 35.084274,5.8637018 34.419005,4.9855286 33.715244,3.8775327 33.897253,2.7338491 c 0.06122,-0.376591 0.536378,-0.6521896 0.829609,-0.3007947 0.610922,0.7347123 0.999512,1.6162176 1.573971,2.3201765 0.619288,0.7601708 1.336748,1.4750537 2.119152,2.0627417 0.823083,0.6188563 1.687171,1.1954343 2.61884,1.637438 0.912627,0.4322069 1.751941,0.7937681 2.766227,0.8873078 2.046323,-0.00116 4.440378,0.4084529 6.739764,1.3649416 C 50.284333,10.564578 50.024813,10.42324 49.763562,10.279287 48.928729,9.8195493 48.081213,9.3488533 47.29649,8.744849 46.509952,8.1475037 45.800626,7.4017082 45.253186,6.5458244 44.710008,5.7077908 44.270589,4.6844329 44.329,3.5830995 c 0.03232,-0.5438072 0.211384,-1.0838329 0.515191,-1.525933 0.306073,-0.4432251 0.728285,-0.7785233 1.189832,-1.0053195 0.923446,-0.45421192 2.033145,-0.47756482 2.999302,-0.05046 0.481267,0.2163498 0.91183,0.5632694 1.232508,0.9883757 0.316277,0.4278211 0.52718,0.9162053 0.602094,1.4389745 0.07491,0.5227739 -0.05231,1.0494153 -0.299709,1.4645971 -0.252791,0.4161228 -0.603562,0.7461323 -1.001924,0.9770354 0.343619,-0.3050004 0.62161,-0.6806696 0.790893,-1.0944219 C 50.533714,4.3643574 50.565125,3.9090473 50.463801,3.4887894 50.36244,3.0664884 50.124642,2.6653545 49.846635,2.3401528 49.559409,2.0169116 49.199267,1.7758026 48.805915,1.6328713 48.020437,1.3343567 47.122891,1.4199068 46.412503,1.7903431 c -0.714274,0.3750756 -1.196541,1.0779258 -1.234748,1.8870317 -0.02156,0.4039347 0.04014,0.8276233 0.176339,1.242131 0.135786,0.4110211 0.332331,0.8247502 0.560133,1.2172705 0.457275,0.7912812 1.071121,1.4851877 1.774525,2.0863447 1.412292,1.2131566 3.154742,2.028982 4.761131,3.081869 0.327161,0.209927 0.649702,0.431347 0.967432,0.659717 0.02725,-0.0012 0.05526,-0.0023 0.08205,-0.0035 0.400568,-0.01394 0.793926,-0.02801 1.179844,-0.04114 0.387684,0.02022 0.767066,0.04021 1.139232,0.06008 0.371759,0.02406 0.735227,0.0344 1.089854,0.06915 0.352193,0.05439 0.696912,0.107729 1.032597,0.159955 0.674244,0.08251 1.294637,0.272391 1.879454,0.42714 0.145786,0.04044 0.289549,0.07531 0.429368,0.118398 0.137559,0.05195 0.272342,0.102964 0.404697,0.152715 0.264488,0.100524 0.518686,0.197085 0.762957,0.28916 0.244078,0.09518 0.462757,0.223873 0.679899,0.325768 0.211665,0.112145 0.42349,0.197969 0.606659,0.316668 0.745873,0.445607 1.284684,0.867157 1.613966,1.196062 0.172444,0.153389 0.288915,0.295088 0.370461,0.383037 0.0805,0.08972 0.114737,0.139084 0.114737,0.139084 l -0.114144,0.0968 c 0,0 -0.04059,-0.04811 -0.1251,-0.126044 -0.08676,-0.07682 -0.205158,-0.196958 -0.388119,-0.332125 -0.342103,-0.290578 -0.911469,-0.634684 -1.652484,-1.020022 -0.182634,-0.101338 -0.395618,-0.170543 -0.606015,-0.264501 -0.216007,-0.08425 -0.431821,-0.192657 -0.673387,-0.266975 -0.241783,-0.07321 -0.492993,-0.149066 -0.7541,-0.227394 -0.129312,-0.04021 -0.261494,-0.07972 -0.396584,-0.120513 -0.137217,-0.03149 -0.279116,-0.05555 -0.42182,-0.08449 -0.57276,-0.109705 -1.1749,-0.250613 -1.831143,-0.285128 -0.324296,-0.03266 -0.65715,-0.06659 -0.997346,-0.101105 -0.343015,-0.01639 -0.695355,-0.0081 -1.053333,-0.01325 -0.358511,-0.0012 -0.72424,-0.0035 -1.096099,-0.0046 -0.05979,0.0046 -0.121843,0.01046 -0.182108,0.01546 0.0866,0.07426 0.174352,0.145185 0.259075,0.222013 0.725113,0.647677 1.381966,1.375727 1.963325,2.160953 0.291011,0.390975 0.561132,0.797824 0.813641,1.21554 0.251779,0.416878 0.492136,0.840938 0.694118,1.292204 0.406352,0.894188 0.663602,1.858091 0.741606,2.82898 0.0024,0.02557 0.0015,0.04985 0.0035,0.07554 0.02017,0.22651 0.02591,0.426094 0.02468,0.595753 -1.1e-4,0.01487 4e-6,0.0287 -4.97e-4,0.04323 -4.35e-4,0.08832 -0.0083,0.176132 -0.01069,0.264535 -0.0216,0.581971 -0.09548,1.15641 -0.222599,1.717927 -0.09249,-0.03114 -0.184409,-0.06403 -0.27664,-0.09413 0.18198,-0.845065 0.255354,-1.714394 0.173699,-2.587838 -0.0094,-0.104243 -0.0281,-0.206429 -0.04213,-0.310416 -0.52825,-1.915918 -1.889248,-5.111014 -5.307713,-7.323822 -0.311554,0.02452 -0.624764,0.05044 -0.943756,0.07589 -0.395494,0.06543 -0.796994,0.131472 -1.203759,0.198898 -0.406411,0.06682 -0.81822,0.134586 -1.234593,0.202536 -0.415467,0.07902 -0.829289,0.198607 -1.250796,0.297179 -0.838516,0.221606 -1.711664,0.371428 -2.565627,0.67515 -0.858628,0.276761 -1.736935,0.541342 -2.615654,0.838882 -0.868227,0.334751 -1.746609,0.673743 -2.632039,1.015153 -0.895742,0.314414 -1.754756,0.746737 -2.63448,1.13433 -0.882906,0.398714 -1.769733,0.800009 -2.656594,1.199258 -0.444945,0.198758 -0.881401,0.40241 -1.35967,0.578286 -0.468435,0.181954 -0.935643,0.372299 -1.406354,0.518948 -0.469581,0.15662 -0.936535,0.31919 -1.413238,0.445386 -0.473184,0.135504 -0.944029,0.273983 -1.421336,0.378784 -0.08345,0.01987 -0.16724,0.03452 -0.250347,0.05381 0.863483,2.713208 4.400243,3.632649 6.549676,3.093143 2.294901,-0.574905 7.524692,-1.513416 9.374851,-7.694634 0,0 0.182034,1.68082 -2.023852,4.560236 -2.206364,2.879543 -6.631452,4.73789 -10.507257,3.652253 -1.981513,-0.555253 -3.395088,-1.830676 -3.921887,-3.496075 -1.64046,0.351823 -3.28108,0.572848 -4.876298,0.691408 -1.848256,0.14121 -3.640232,0.119072 -5.329023,0.02057 -1.689719,-0.09623 -3.277115,-0.298923 -4.729199,-0.540413 -2.90765,-0.482562 -5.2635395,-1.175062 -6.8916399,-1.69623"
         style="fill:#1c1c1b;fill-opacity:1;fill-rule:nonzero;stroke:none"
         id="path280-1"
         inkscape:connector-curvature="0" /></g><g
       id="g4677"
       transform="translate(0,1.8135015)"><path
         d="m 175.71219,17.839834 c 0.57977,-0.381108 1.01856,-0.874768 1.4627,-1.400131 0.20276,-0.239038 -0.11122,-0.595137 -0.37984,-0.462097 -0.57587,0.284617 -1.15884,0.525479 -1.71329,0.853629 -0.5579,0.330602 -1.13646,0.633906 -1.71259,0.930923 -1.18342,0.608013 -2.43381,1.100058 -3.70917,1.474112 -1.26982,0.373601 -2.53892,0.711606 -3.84584,0.931469 -0.64314,0.108194 -1.28095,0.247801 -1.92725,0.340411 -0.71128,0.102848 -1.4123,0.13677 -2.12913,0.13849 -0.0446,1.51e-4 -0.0557,0.06624 -0.008,0.06926 0.67805,0.05079 1.35788,0.07949 2.03738,0.124173 0.66864,0.04242 1.36354,0.09483 2.03323,0.04939 1.38167,-0.09216 2.77758,-0.238353 4.12124,-0.589152 1.35289,-0.352764 2.67522,-0.821497 3.94076,-1.414054 0.63989,-0.302293 1.2398,-0.658009 1.82942,-1.04638"
         style="fill:#1c1c1b;fill-opacity:1;fill-rule:nonzero;stroke:none"
         id="path284-7"
         inkscape:connector-curvature="0" /><path
         d="m 148.27622,17.446966 c 0.05,0.0122 0.0998,0.02196 0.14942,0.03486 0.10389,-2.91751 -2.19659,-5.67976 -5.239,-6.969733 -3.27548,-1.3881028 -10.17615,-3.4205481 -16.90516,-0.308649 -0.041,0.01918 -0.0795,0.04032 -0.12054,0.0595 0.25553,0.03266 0.50902,0.0652 0.76937,0.09866 0.42192,0.05415 0.84926,0.109589 1.28273,0.164755 0.43055,0.06729 0.85802,0.172867 1.29539,0.259887 0.43591,0.09309 0.87642,0.187939 1.32115,0.283245 0.44838,0.08402 0.88747,0.21576 1.32959,0.349219 0.88469,0.264745 1.79117,0.516984 2.69762,0.8036 0.89,0.330532 1.79067,0.666422 2.69846,1.003985 0.91754,0.316483 1.79135,0.749352 2.68918,1.137828 0.88667,0.396588 1.77697,0.795279 2.66728,1.19397 0.44278,0.201013 0.88755,0.413288 1.3228,0.574754 0.43786,0.173075 0.87008,0.353821 1.32527,0.49968 0.44873,0.154272 0.89551,0.314692 1.35215,0.439133 0.45416,0.134342 0.90535,0.271008 1.36429,0.375332 m 15.41199,1.562516 c -1.4525,0.24142 -3.03944,0.444479 -4.72892,0.540587 -1.68933,0.09867 -3.48128,0.120594 -5.32973,-0.02034 -1.59476,-0.119107 -3.23523,-0.339888 -4.87634,-0.691327 -0.52608,1.665329 -1.94014,2.940579 -3.92138,3.495053 -3.87618,1.086334 -8.30115,-0.771606 -10.50751,-3.651928 -2.20611,-2.87937 -2.02376,-4.55983 -2.02376,-4.55983 1.85075,6.181346 7.08001,7.119323 9.37479,7.694785 2.14954,0.53896 5.68628,-0.379969 6.54937,-3.093014 -0.0826,-0.01941 -0.16625,-0.0344 -0.25001,-0.05404 -0.47758,-0.10494 -0.94816,-0.243129 -1.42169,-0.378935 -0.47589,-0.12544 -0.94352,-0.288998 -1.41285,-0.445444 -0.47083,-0.1468 -0.93782,-0.336703 -1.40611,-0.518041 -0.4788,-0.176493 -0.91465,-0.380376 -1.36027,-0.578577 -0.88661,-0.400191 -1.77334,-0.800869 -2.65643,-1.199444 -0.87966,-0.387686 -1.73856,-0.820451 -2.63394,-1.134667 -0.88574,-0.341421 -1.7641,-0.680205 -2.63265,-1.014944 -0.87898,-0.297063 -1.75658,-0.562168 -2.61574,-0.838882 -0.85313,-0.303978 -1.72651,-0.453741 -2.56514,-0.674906 -0.42159,-0.0989 -0.83521,-0.217968 -1.25058,-0.297539 -0.41698,-0.06833 -0.82915,-0.135958 -1.23492,-0.20271 -0.40651,-0.06752 -0.80794,-0.133436 -1.2036,-0.198794 -0.31937,-0.0258 -0.63235,-0.05067 -0.94438,-0.07577 -3.41831,2.213005 -4.77868,5.408194 -5.30739,7.324101 -0.0138,0.103778 -0.0325,0.206232 -0.0425,0.310509 -0.0811,0.872944 -0.008,1.741972 0.17444,2.58692 -0.0928,0.03103 -0.18406,0.06368 -0.27635,0.0946 -0.12725,-0.561087 -0.20172,-1.135794 -0.22317,-1.717532 -0.002,-0.08855 -0.0108,-0.176167 -0.0109,-0.264884 -2.4e-4,-0.01429 -4.8e-4,-0.02859 -3.7e-4,-0.04358 -0.002,-0.169357 0.004,-0.368534 0.0246,-0.595614 0.001,-0.02499 9.9e-4,-0.05009 0.003,-0.07519 0.0784,-0.971236 0.33579,-1.935024 0.74116,-2.829177 0.20278,-0.451451 0.44331,-0.87507 0.69475,-1.292355 0.25289,-0.417692 0.52315,-0.824123 0.81352,-1.2149 0.58126,-0.785308 1.23838,-1.513463 1.9637,-2.161372 0.0848,-0.07612 0.17292,-0.147416 0.25918,-0.221838 -0.0604,-0.0058 -0.12231,-0.01046 -0.18228,-0.01581 -0.37252,0.0023 -0.7376,0.0023 -1.09631,0.0046 -0.35767,0.0058 -0.71029,-0.0023 -1.05288,0.01325 -0.34046,0.03533 -0.67314,0.06903 -0.99742,0.10157 -0.65629,0.03428 -1.25838,0.17504 -1.83129,0.284942 -0.14257,0.02894 -0.28499,0.05276 -0.4221,0.08484 -0.13432,0.04056 -0.26686,0.08019 -0.39639,0.119548 -0.26111,0.07868 -0.51217,0.154679 -0.75378,0.227637 -0.24158,0.07496 -0.45723,0.18357 -0.67342,0.267139 -0.21084,0.0939 -0.42318,0.163174 -0.60624,0.265069 -0.7408,0.385257 -1.31001,0.729154 -1.65279,1.02007 -0.18311,0.134249 -0.30119,0.254645 -0.38777,0.331717 -0.0849,0.07775 -0.12543,0.125499 -0.12543,0.125499 l -0.11417,-0.09669 c 0,0 0.0341,-0.04869 0.11464,-0.138978 0.0817,-0.08762 0.19823,-0.229102 0.37104,-0.382643 0.32891,-0.329277 0.86822,-0.750339 1.61376,-1.196387 0.18339,-0.117886 0.3952,-0.204395 0.60682,-0.316517 0.21649,-0.10157 0.43553,-0.23009 0.67941,-0.325198 0.24465,-0.09227 0.49885,-0.189078 0.76332,-0.289707 0.13236,-0.04986 0.26699,-0.100756 0.40436,-0.152982 0.13994,-0.04265 0.2841,-0.07717 0.4302,-0.11784 0.58394,-0.154923 1.2048,-0.344373 1.87831,-0.427349 0.33645,-0.05218 0.68082,-0.105405 1.03358,-0.159967 0.35407,-0.0344 0.71802,-0.04521 1.08969,-0.06926 0.37186,-0.01952 0.75177,-0.03974 1.1389,-0.05997 0.38575,0.01313 0.77959,0.02766 1.17991,0.04149 0.0265,10e-4 0.055,0.0023 0.0822,0.0035 0.31785,-0.2288227 0.63993,-0.4495574 0.96722,-0.6603904 1.60669,-1.052323 3.34898,-1.8685783 4.76133,-3.0812818 0.70338,-0.6015058 1.31744,-1.2950285 1.77429,-2.0870186 0.22808,-0.3915325 0.42452,-0.8053882 0.56054,-1.2168942 0.13633,-0.4141579 0.1976,-0.8384763 0.17614,-1.242167 -0.0383,-0.8091419 -0.52062,-1.51211535 -1.23464,-1.88672491 -0.71083,-0.37033642 -1.60813,-0.45622348 -2.39366,-0.15749156 -0.39275,0.14269302 -0.75296,0.38389729 -1.04084,0.70732095 -0.27777,0.32481121 -0.51602,0.72625662 -0.61688,1.14835422 -0.10124,0.4206601 -0.0697,0.8755169 0.10629,1.2870682 0.16925,0.4133456 0.44763,0.7897553 0.7914,1.094256 -0.39891,-0.2307173 -0.74936,-0.5601177 -1.00161,-0.976873 -0.24814,-0.4147878 -0.37554,-0.9419627 -0.30006,-1.4644937 0.0745,-0.5222776 0.28535,-1.01078502 0.60117,-1.43866188 0.32117,-0.42519931 0.75148,-0.77241752 1.2334,-0.98826068 0.9661,-0.42715284 2.07585,-0.40435074 2.99908,0.0501807 0.46183,0.22617215 0.88367,0.56157384 1.19035,1.00530909 0.30365,0.44198157 0.48238,0.98260117 0.5146,1.52604107 0.0592,1.1016402 -0.38106,2.1241709 -0.92392,2.9627972 -0.54798,0.8559184 -1.25686,1.601528 -2.04351,2.1986641 -0.78484,0.60383 -1.63237,1.0751541 -2.46665,1.5347059 -0.2617,0.1434996 -0.52079,0.2852675 -0.7811,0.4263382 2.29883,-0.9566519 4.69279,-1.3667203 6.73941,-1.3650817 1.01403,-0.093203 1.85391,-0.4551939 2.76643,-0.8869824 0.93183,-0.442085 1.79514,-1.0192326 2.61869,-1.6375424 0.78198,-0.5876648 1.49955,-1.3027743 2.11888,-2.0628663 0.5742,-0.7044017 0.96308,-1.5854049 1.57429,-2.3202404 0.29306,-0.35199454 0.76823,-0.076038 0.82962,0.30053669 0.18178,1.14369641 -0.52172,2.25215481 -1.1869,3.13022951 -0.6845,0.9017298 -1.57375,1.6310229 -2.53524,2.2247307 -1.34226,0.8270747 -2.84151,1.2482879 -4.38211,1.354274 3.86063,0.3836997 8.95398,1.867586 11.58284,5.6449534 1.06268,1.526443 1.49748,3.011271 1.431,4.333342 1.59283,0.368476 3.18847,0.632569 4.75173,0.779625 1.79151,0.16594 3.53703,0.227219 5.19246,0.185906 1.65538,-0.04335 3.22255,-0.15748 4.6631,-0.322851 2.88147,-0.336994 5.26584,-0.817348 6.91265,-1.235516 0.82295,-0.210764 1.47097,-0.379261 1.9077,-0.509105 0.43773,-0.128067 0.66784,-0.205639 0.66784,-0.205639 l 0.0285,0.07194 c 0,0 -0.22421,0.09959 -0.6502,0.267603 -0.42675,0.165139 -1.05265,0.412381 -1.86779,0.673384 -1.62753,0.520749 -3.9838,1.213168 -6.89144,1.695707"
         style="fill:#1c1c1b;fill-opacity:1;fill-rule:nonzero;stroke:none"
         id="path288-9"
         inkscape:connector-curvature="0" /></g></g></svg>