<?xml version="1.0" encoding="UTF-8" standalone="no"?>
<!-- Created with Inkscape (http://www.inkscape.org/) -->

<svg
   xmlns:dc="http://purl.org/dc/elements/1.1/"
   xmlns:cc="http://creativecommons.org/ns#"
   xmlns:rdf="http://www.w3.org/1999/02/22-rdf-syntax-ns#"
   xmlns:svg="http://www.w3.org/2000/svg"
   xmlns="http://www.w3.org/2000/svg"
   xmlns:sodipodi="http://sodipodi.sourceforge.net/DTD/sodipodi-0.dtd"
   xmlns:inkscape="http://www.inkscape.org/namespaces/inkscape"
   id="svg2"
   version="1.1"
   inkscape:version="0.48.4 r9939"
   width="164"
   height="32"
   xml:space="preserve"
   sodipodi:docname="tr_footer.svg"><metadata
     id="metadata8"><rdf:RDF><cc:Work
         rdf:about=""><dc:format>image/svg+xml</dc:format><dc:type
           rdf:resource="http://purl.org/dc/dcmitype/StillImage" /><dc:title></dc:title></cc:Work></rdf:RDF></metadata><defs
     id="defs6"><clipPath
       clipPathUnits="userSpaceOnUse"
       id="clipPath16"><path
         d="M 0,800 800,800 800,0 0,0 0,800 z"
         id="path18"
         inkscape:connector-curvature="0" /></clipPath><clipPath
       clipPathUnits="userSpaceOnUse"
       id="clipPath136"><path
         d="m -0.291992,801.176 800.537992,0 0,-802.7053 -800.537992,0 0,802.7053 z"
         id="path138"
         inkscape:connector-curvature="0" /></clipPath><clipPath
       clipPathUnits="userSpaceOnUse"
       id="clipPath15296"><path
         d="M 0,800 800,800 800,0 0,0 0,800 z"
         id="path15298"
         inkscape:connector-curvature="0" /></clipPath></defs><sodipodi:namedview
     pagecolor="#ffffff"
     bordercolor="#666666"
     borderopacity="1"
     objecttolerance="10"
     gridtolerance="10"
     guidetolerance="10"
     inkscape:pageopacity="0"
     inkscape:pageshadow="2"
     inkscape:window-width="1375"
     inkscape:window-height="876"
     id="namedview4"
     showgrid="false"
     inkscape:zoom="1.888"
     inkscape:cx="64.75713"
     inkscape:cy="20.883391"
     inkscape:window-x="65"
     inkscape:window-y="24"
     inkscape:window-maximized="1"
     inkscape:current-layer="g10" /><g
     id="g10"
     inkscape:groupmode="layer"
     inkscape:label="halloween12"
     transform="matrix(1.25,0,0,-1.25,0,32)"><path
       inkscape:connector-curvature="0"
       d="m 4.4306685,4.0934195 c 3.9930413,0.0038 7.9846695,0.01176 11.9753605,0.0221 l -1.569754,-1.611134 c -0.363987,-0.373863 0.02445,-0.9828598 0.516354,-0.8102715 l 6.939269,2.4359865 c 2.992312,0.0075 5.984155,0.01364 8.976468,0.01928 l -1.137108,-1.167205 c -0.275106,-0.28216 0.01881,-0.743022 0.391263,-0.612758 l 5.083122,1.783725 c 0.891628,9.4e-4 1.782315,0.0028 2.674417,0.0038 L 36.47752,2.3069095 C 36.101306,1.9203497 36.50338,1.2911316 37.012214,1.469363 l 8.052399,2.8263085 c 0.455689,0.159891 0.455689,0.803687 0,0.963578 l -8.315749,2.918951 c -0.49237,0.172588 -0.89633,-0.417127 -0.557267,-0.813093 l 1.708952,-1.999577 c -0.722801,0.0066 -1.446543,0.0085 -2.169814,0.01552 l -5.401024,1.896119 c -0.360225,0.126463 -0.655082,-0.305242 -0.407251,-0.594457 l 1.061864,-1.241977 c -2.807968,0.03668 -5.614995,0.07807 -8.421552,0.117567 l -7.464557,2.620802 c -0.475911,0.166945 -0.866704,-0.40255 -0.538927,-0.786288 l 1.498272,-1.752687 c -0.209269,0.0028 -0.417597,0.0056 -0.625926,0.0085 -2.627855,0.02634 -5.259943,0.05314 -7.8802705,0.270874 -1.068918,0.08794 -2.533331,0.01834 -3.483742,0.547391 -0.787698,0.437349 -1.306403,1.482284 -2.332527,1.396225 -0.87281706,-0.07383 -1.50344612,-0.947119 -1.3449661,-1.798774 0.150486,-0.802747 0.8507151,-1.414094 1.6196021,-1.690612 0.767947,-0.277458 1.604553,-0.280279 2.420938,-0.280279"
       style="fill:#000000;fill-opacity:1;fill-rule:nonzero;stroke:none"
       id="path15390-5" /><path
       inkscape:connector-curvature="0"
       d="m 129.22372,4.3735575 c 0.76889,0.276517 1.46959,0.888336 1.61914,1.691082 0.15895,0.851185 -0.47215,1.724942 -1.3445,1.798304 -1.02706,0.08653 -1.54483,-0.958876 -2.33206,-1.396225 -0.95041,-0.529051 -2.41576,-0.458981 -3.48468,-0.547391 -2.62033,-0.217734 -5.25195,-0.244069 -7.87981,-0.270874 -0.20833,-0.0028 -0.41712,-0.0056 -0.62639,-0.0085 l 1.49874,1.752687 c 0.32731,0.383738 -0.063,0.953232 -0.53893,0.786287 l -7.46455,-2.620331 c -2.80703,-0.0395 -5.61405,-0.08089 -8.42155,-0.117566 l 1.06186,1.241506 c 0.24783,0.289215 -0.047,0.72092 -0.40725,0.594418 l -5.401498,-1.895648 c -0.7228,-0.0075 -1.44655,-0.0094 -2.16935,-0.01599 l 1.70896,1.999578 c 0.33906,0.395966 -0.0649,0.985681 -0.55727,0.813093 l -8.31621,-2.918916 c -0.45522,-0.159891 -0.45522,-0.803687 0,-0.963578 l 8.05239,-2.8263086 c 0.50883,-0.1782314 0.91138,0.4509867 0.53469,0.8375466 l -1.80206,1.850033 c 0.89209,-9.41e-4 1.78278,-0.0028 2.67394,-0.0038 l 5.083598,-1.783725 c 0.37198,-0.130264 0.6659,0.330598 0.39126,0.612758 l -1.137091,1.167204 c 2.992301,-0.0052 5.984141,-0.01176 8.976451,-0.01928 l 6.93927,-2.4355163 c 0.49237,-0.1725883 0.88081,0.4359383 0.51729,0.8098003 l -1.57069,1.611137 c 3.99069,-0.0099 7.98138,-0.01834 11.97537,-0.0221 0.81638,0 1.65299,0.0028 2.42093,0.280279"
       style="fill:#000000;fill-opacity:1;fill-rule:nonzero;stroke:none"
       id="path15394-7" /><path
       inkscape:connector-curvature="0"
       d="m 42.874036,23.714409 c -5.685633,-6.535076 -11.893661,-3.920898 -11.893661,-3.920898 -0.130966,-4.509512 -5.555036,-4.182464 -5.555036,-4.182464 0.261565,0.849074 -0.261566,1.241606 -0.261566,1.241606 l 0.130967,1.50317 -1.111007,-1.169132 -1.111007,1.169132 0.130966,-1.50317 c 0,0 -0.522762,-0.392532 -0.261564,-1.241606 0,0 -5.424069,-0.327048 -5.554667,4.182464 0,0 -6.208763,-2.614178 -11.8940252,3.920898 0,0 2.940857,-3.724817 2.352612,-7.188804 0,0 2.9404862,0.06475 2.8098882,-3.267905 0,0 3.921265,1.046258 5.228354,-2.156163 0,0 3.26717,1.046259 3.855415,-0.980042 0,0 3.267905,3.528736 4.182463,-2.614177 l 0.261565,-0.065117 0.261564,0.065117 c 0.914926,6.142913 4.182466,2.614177 4.182466,2.614177 0.587877,2.026301 3.855783,0.980042 3.855783,0.980042 1.307089,3.202421 5.227986,2.156163 5.227986,2.156163 -0.130966,3.332652 2.809891,3.267905 2.809891,3.267905 -0.588244,3.463987 2.352613,7.188804 2.352613,7.188804"
       style="fill:#000000;fill-opacity:1;fill-rule:nonzero;stroke:none"
       id="path15414-0" /><path
       inkscape:connector-curvature="0"
       d="m 126.19295,23.714409 c -5.68563,-6.535076 -11.89366,-3.920898 -11.89366,-3.920898 -0.13096,-4.509512 -5.55504,-4.182464 -5.55504,-4.182464 0.26157,0.849074 -0.26157,1.241606 -0.26157,1.241606 l 0.13098,1.50317 -1.11102,-1.169132 -1.111,1.169132 0.13096,-1.50317 c 0,0 -0.52276,-0.392532 -0.26156,-1.241606 0,0 -5.42407,-0.327048 -5.55466,4.182464 0,0 -6.208778,-2.614178 -11.894038,3.920898 0,0 2.94086,-3.724817 2.35261,-7.188804 0,0 2.94048,0.06475 2.80989,-3.267905 0,0 3.921263,1.046258 5.228361,-2.156163 0,0 3.267167,1.046259 3.855417,-0.980042 0,0 3.2679,3.528736 4.18246,-2.614177 l 0.26156,-0.065117 0.26157,0.065117 c 0.91493,6.142913 4.18247,2.614177 4.18247,2.614177 0.58788,2.026301 3.85579,0.980042 3.85579,0.980042 1.30707,3.202421 5.22798,2.156163 5.22798,2.156163 -0.13097,3.332652 2.80988,3.267905 2.80988,3.267905 -0.58824,3.463987 2.35262,7.188804 2.35262,7.188804"
       style="fill:#000000;fill-opacity:1;fill-rule:nonzero;stroke:none"
       id="path15414-0-2" /></g></svg>